# File produced by Open Asset Import Library (http://www.assimp.sf.net)
# (assimp v3.1.193236683)

mtllib Cube Texture 1a.mtl

# 128 vertex positions
v  249.888 38.4293 -1389.8
v  292.201 38.4293 -1389.8
v  292.201 85.1062 -1389.8
v  249.888 85.1062 -1389.8
v  433.951 41.2293 -1399.44
v  433.951 41.2293 -1580.16
v  433.951 91.402 -1580.16
v  433.951 91.4021 -1399.44
v  289.074 101.042 -1399.44
v  289.074 101.042 -1580.16
v  243.592 101.042 -1580.16
v  243.592 101.042 -1399.44
v  233.951 41.2293 -1580.16
v  233.951 41.2293 -1399.44
v  233.951 91.4021 -1399.44
v  233.951 91.402 -1580.16
v  418.015 38.4293 -1589.8
v  375.702 38.4293 -1589.8
v  375.702 85.1062 -1589.8
v  418.015 85.1062 -1589.8
v  243.592 -98.9575 -1399.44
v  243.592 -89.3171 -1389.8
v  233.951 -89.3171 -1399.44
v  243.592 91.4021 -1389.8
v  243.592 -98.9576 -1580.16
v  233.951 -89.3172 -1580.16
v  243.592 -89.3172 -1589.8
v  243.592 91.402 -1589.8
v  424.311 -98.9575 -1399.44
v  433.951 -89.3171 -1399.44
v  424.311 -89.3171 -1389.8
v  424.311 101.042 -1399.44
v  424.311 91.4021 -1389.8
v  424.311 -98.9576 -1580.16
v  424.311 -89.3172 -1589.8
v  433.951 -89.3172 -1580.16
v  424.311 101.042 -1580.16
v  424.311 91.402 -1589.8
v  243.592 41.2293 -1389.8
v  233.951 -39.1444 -1580.16
v  243.592 -39.1444 -1589.8
v  289.074 -89.3172 -1589.8
v  289.074 -98.9576 -1580.16
v  378.829 91.402 -1589.8
v  378.829 101.042 -1580.16
v  424.311 -39.1444 -1589.8
v  433.951 -39.1444 -1580.16
v  433.951 -39.1444 -1399.44
v  424.311 -39.1444 -1389.8
v  378.829 -89.3171 -1389.8
v  378.829 -98.9575 -1399.44
v  289.074 91.402 -1389.8
v  378.829 -98.9576 -1580.16
v  249.888 -36.3444 -1589.8
v  249.888 -83.0213 -1589.8
v  378.829 -89.3172 -1589.8
v  375.702 -83.0213 -1589.8
v  418.015 -83.0213 -1589.8
v  289.074 91.402 -1589.8
v  292.201 85.1062 -1589.8
v  249.888 85.1062 -1589.8
v  424.311 41.2293 -1589.8
v  418.015 -36.3444 -1389.8
v  418.015 -83.0213 -1389.8
v  289.074 -89.3171 -1389.8
v  292.201 -83.0213 -1389.8
v  249.888 -83.0213 -1389.8
v  378.829 91.402 -1389.8
v  375.702 85.1062 -1389.8
v  418.015 85.1062 -1389.8
v  375.702 -83.0213 -1389.8
v  292.201 -83.0213 -1589.8
v  289.074 -98.9575 -1399.44
v  378.829 101.042 -1399.44
v  292.201 38.4293 -1589.8
v  249.888 38.4293 -1589.8
v  333.951 61.7677 -1589.8
v  375.702 38.4293 -1389.8
v  418.015 38.4293 -1389.8
v  333.951 61.7678 -1389.8
v  375.702 -83.0213 -1586.06
v  333.951 -59.6829 -1589.8
v  333.951 -59.6829 -1586.06
v  375.702 -83.0213 -1393.53
v  375.702 -36.3444 -1389.8
v  375.702 -36.3444 -1393.53
v  292.201 -36.3444 -1586.06
v  292.201 -36.3444 -1589.8
v  249.888 -36.3444 -1586.06
v  292.201 38.4293 -1586.06
v  292.201 85.1062 -1586.06
v  375.702 85.1062 -1393.53
v  333.951 61.7678 -1393.53
v  418.015 38.4293 -1586.06
v  396.858 1.04243 -1589.8
v  396.858 1.04243 -1586.06
v  424.311 41.2293 -1389.8
v  418.015 -36.3444 -1589.8
v  243.592 41.2293 -1589.8
v  249.888 -36.3444 -1389.8
v  243.592 -39.1444 -1389.8
v  233.951 -39.1444 -1399.44
v  375.702 -36.3444 -1589.8
v  292.201 -83.0213 -1586.06
v  292.201 -36.3444 -1389.8
v  292.201 38.4293 -1393.53
v  249.888 38.4293 -1393.53
v  375.702 -36.3444 -1586.06
v  249.888 -36.3444 -1393.53
v  292.201 -36.3444 -1393.53
v  418.015 38.4293 -1393.53
v  375.702 38.4293 -1393.53
v  333.951 61.7677 -1586.06
v  271.044 1.04243 -1589.8
v  292.201 85.1062 -1393.53
v  418.015 -36.3444 -1393.53
v  271.044 1.04246 -1393.53
v  271.044 1.04246 -1389.8
v  375.702 85.1062 -1586.06
v  271.044 1.04243 -1586.06
v  249.888 38.4293 -1586.06
v  333.951 -59.6828 -1389.8
v  375.702 38.4293 -1586.06
v  333.951 -59.6828 -1393.53
v  418.015 -36.3444 -1586.06
v  396.858 1.04246 -1393.53
v  396.858 1.04246 -1389.8
v  292.201 -83.0213 -1393.53

# 260 UV coordinates
vt 0.7983 0.473864 0
vt 0.839283 0.473864 0
vt 0.839283 0.519073 0
vt 0.7983 0.519073 0
vt 4.90209e-08 0.951405 0
vt 0.175037 0.951405 0
vt 0.175037 1 0
vt 0 1 0
vt 0.792217 0.130984 0
vt 0.967254 0.131045 0
vt 0.967239 0.175097 0
vt 0.792202 0.175037 0
vt 0.967239 0.573766 0
vt 0.792202 0.573766 0
vt 0.792202 0.525171 0
vt 0.967239 0.525171 0
vt 0.961141 0.226404 0
vt 0.920158 0.226404 0
vt 0.920158 0.181195 0
vt 0.961141 0.181195 0
vt 0.169557 0.722897 0
vt 0.163165 0.734451 0
vt 0.156355 0.723138 0
vt 0.0132027 0.824722 0
vt 4.90209e-08 0.824963 0
vt 0.00639252 0.813409 0
vt 0.166361 0.54789 0
vt 0.153159 0.548131 0
vt 0.159551 0.536577 0
vt 0.159552 0.175007 0
vt 0.153159 0.186562 0
vt 0.146349 0.175249 0
vt 0.469483 0.542354 0
vt 0.475876 0.5308 0
vt 0.482686 0.542113 0
vt 0.639042 0.440287 0
vt 0.63265 0.451841 0
vt 0.62584 0.440528 0
vt 0.316324 0.457619 0
vt 0.309514 0.446305 0
vt 0.322717 0.446064 0
vt 0.312711 0.259743 0
vt 0.319521 0.271057 0
vt 0.306318 0.271298 0
vt 0.0480263 0.788347 0
vt 0.0548365 0.79966 0
vt 0.143153 0.000241183 0
vt 0.156356 0 0
vt 0.110638 0.524606 0
vt 0.11703 0.513052 0
vt 0.197293 0.513858 0
vt 0.204103 0.525171 0
vt 0.267772 0.249972 0
vt 0.274165 0.238417 0
vt 0.308627 0.397718 0
vt 0.32183 0.397477 0
vt 0.622643 0.26552 0
vt 0.635846 0.265279 0
vt 0.51751 0.505738 0
vt 0.52432 0.517051 0
vt 0.277777 0.797861 0
vt 0.28417 0.786306 0
vt 0.322715 0.807632 0
vt 0.316323 0.819186 0
vt 0.747263 0.515252 0
vt 0.753656 0.503697 0
vt 0.792202 0.525023 0
vt 0.785809 0.536578 0
vt 0.792202 0.831192 0
vt 0.967239 0.831192 0
vt 0.967239 0.875244 0
vt 0.792202 0.875244 0
vt 0.792202 0.476576 0
vt 0.792202 0.301539 0
vt 0.7983 0.298827 0
vt 0.7983 0.344036 0
vt 0.792202 0.350134 0
vt 0.923186 0.350134 0
vt 0.920158 0.344036 0
vt 0.961141 0.344036 0
vt 0.967239 0.350134 0
vt 0.836254 0.175097 0
vt 0.839283 0.181195 0
vt 0.7983 0.181195 0
vt 0.792202 0.175097 0
vt 0.967239 0.223692 0
vt 0.967239 0.175097 0
vt 0.967239 0.398729 0
vt 0.961141 0.401441 0
vt 0.961141 0.356232 0
vt 0.967239 0.350134 0
vt 0.836254 0.350134 0
vt 0.839283 0.356232 0
vt 0.7983 0.356232 0
vt 0.792202 0.350134 0
vt 0.923186 0.525171 0
vt 0.920158 0.519073 0
vt 0.961141 0.519073 0
vt 0.967239 0.525171 0
vt 0.836254 0.525171 0
vt 0.920158 0.356232 0
vt 0.923186 0.350134 0
vt 0.923186 0.175097 0
vt 0.839283 0.344036 0
vt 0.836254 0.350134 0
vt 0.792202 0.700208 0
vt 0.967239 0.700208 0
vt 0.967239 0.74426 0
vt 0.792202 0.74426 0
vt 0.677589 0.461613 0
vt 0.671196 0.473167 0
vt 0.208103 0.744222 0
vt 0.201711 0.755777 0
vt 0.198098 0.196333 0
vt 0.191705 0.207888 0
vt 0.278583 0.480338 0
vt 0.271772 0.469024 0
vt 0.839283 0.226404 0
vt 0.7983 0.226404 0
vt 0.87972 0.2038 0
vt 0.792262 0 0
vt 0.967299 6.03447e-05 0
vt 0.967284 0.0441126 0
vt 0.792247 0.0440522 0
vt 0.920158 0.473864 0
vt 0.961141 0.473864 0
vt 0.87972 0.496468 0
vt 0.615946 0.987984 0
vt 0.615945 0.991606 0
vt 0.569617 0.99159 0
vt 0.569619 0.987968 0
vt 0.523283 0.995316 0
vt 0.523283 0.991694 0
vt 0.568492 0.991694 0
vt 0.568492 0.995315 0
vt 0.920158 0.401441 0
vt 0.478081 0.987936 0
vt 0.47808 0.991558 0
vt 0.437097 0.991544 0
vt 0.437098 0.987922 0
vt 0.312901 0.98788 0
vt 0.3129 0.991501 0
vt 0.267691 0.991485 0
vt 0.267692 0.987864 0
vt 0.778884 0.995315 0
vt 0.778884 0.991693 0
vt 0.825213 0.991693 0
vt 0.825213 0.995315 0
vt 0.839283 0.298827 0
vt 0.785352 0.988043 0
vt 0.785351 0.991664 0
vt 0.743745 0.99165 0
vt 0.743746 0.988028 0
vt 0.967239 0.476576 0
vt 0.961141 0.298827 0
vt 0.967239 0.301539 0
vt 0.792202 0.223692 0
vt 0.7983 0.401441 0
vt 0.792202 0.398729 0
vt 0.591016 0.476903 0
vt 0.584205 0.46559 0
vt 0.320408 0.319644 0
vt 0.307205 0.319885 0
vt 0 0.463395 0
vt 0.00639252 0.451841 0
vt 0.0489138 0.475366 0
vt 0.0425212 0.48692 0
vt 0.121531 0.759513 0
vt 0.114721 0.748199 0
vt 0.920158 0.298827 0
vt 0.52329 0.991574 0
vt 0.523291 0.987952 0
vt 0.967239 0.700207 0
vt 0.792202 0.700208 0
vt 0.792202 0.651612 0
vt 0.967239 0.651612 0
vt 0.175037 0.824963 0
vt 0.175037 0.873558 0
vt 4.90209e-08 0.873558 0
vt 0.839283 0.401441 0
vt 0.220246 0.995317 0
vt 0.220246 0.991696 0
vt 0.261229 0.991696 0
vt 0.261229 0.995317 0
vt 0.661156 0.988 0
vt 0.661155 0.991621 0
vt 0.344442 0.995317 0
vt 0.344442 0.991695 0
vt 0.385424 0.991695 0
vt 0.385424 0.995316 0
vt 0.940649 0.262616 0
vt 0.69269 0.995315 0
vt 0.69269 0.991694 0
vt 0.733674 0.991694 0
vt 0.733674 0.995315 0
vt 0.221364 0.991469 0
vt 0.221365 0.987848 0
vt 0.818791 0.262615 0
vt 0.871541 0.991693 0
vt 0.871541 0.995315 0
vt 0.609475 0.991694 0
vt 0.609475 0.995315 0
vt 0.87972 0.321431 0
vt 0.302836 0.995317 0
vt 0.302836 0.991696 0
vt 0.175037 0.991453 0
vt 0.175038 0.987832 0
vt 0.395491 0.987908 0
vt 0.395489 0.991529 0
vt 0.353882 0.991515 0
vt 0.353883 0.987894 0
vt 0.87972 0.378836 0
vt 0.826334 0.988057 0
vt 0.826333 0.991678 0
vt 0.175037 0.995317 0
vt 0.175037 0.991696 0
vt 0.818791 0.437652 0
vt 0.476957 0.995316 0
vt 0.476957 0.991695 0
vt 0.702139 0.988014 0
vt 0.702138 0.991635 0
vt 0.651082 0.995315 0
vt 0.651082 0.991694 0
vt 0.940649 0.437652 0
vt 0.378886 0.870173 0
vt 0.378886 0.824963 0
vt 0.419323 0.847568 0
vt 0.459761 0.870173 0
vt 0.459761 0.942595 0
vt 0.378886 0.942595 0
vt 0.500744 0.942595 0
vt 0.480252 0.906384 0
vt 0.21602 0.942595 0
vt 0.296895 0.942623 0
vt 0.256449 0.965214 0
vt 0.216045 0.870173 0
vt 0.29692 0.8702 0
vt 0.175062 0.870158 0
vt 0.195541 0.906377 0
vt 0.337903 0.870215 0
vt 0.317399 0.906419 0
vt 0.337903 0.942595 0
vt 0.358394 0.906384 0
vt 0.337878 0.942637 0
vt 0.175037 0.942581 0
vt 0.25649 0.847582 0
vt 0.296935 0.824991 0
vt 0.21606 0.824963 0
vt 0.216004 0.987804 0
vt 0.296879 0.987832 0
vt 0.459761 0.824963 0
vt 0.337903 0.870173 0
vt 0.419323 0.9652 0
vt 0.378886 0.987804 0
vt 0.459761 0.987804 0
vt 0.500744 0.870173 0
vt 0.430632 0.991695 0
vt 0.430632 0.995316 0
vt 0.871542 0.988072 0
vt 0.871541 0.991693 0

# 72 vertex normals
vn 0 1.62921e-07 1
vn 1 -6.69367e-16 -4.10855e-09
vn 1.45032e-07 1 -1.62921e-07
vn -1 2.14198e-14 1.31473e-07
vn 0 2.10332e-07 -1
vn -0.577352 -0.577346 0.577353
vn -0.577351 0.577346 0.577353
vn -0.577352 -0.577346 -0.577353
vn -0.577351 0.577346 -0.577354
vn 0.57735 -0.577351 0.57735
vn 0.577349 0.577352 0.57735
vn 0.57735 -0.577352 -0.57735
vn 0.577349 0.577351 -0.57735
vn -0.707107 -0.707107 1.15202e-07
vn -0.707107 1.15202e-07 0.707107
vn -0.707107 0.707107 -1.15202e-07
vn -0.707106 -1.15202e-07 -0.707107
vn 0 -0.707106 -0.707107
vn -1.20154e-07 0.707106 -0.707107
vn 0.707106 2.23639e-08 -0.707107
vn 0.707107 -0.707107 1.15202e-07
vn 0.707107 0.707107 -1.15202e-07
vn 0.707106 1.15202e-07 0.707107
vn 0 -0.707106 0.707108
vn 1.20154e-07 0.707106 0.707107
vn 0 -1 1.62921e-07
vn 0 -1.62921e-07 -1
vn 0 1.45732e-07 -1
vn 0 4.71573e-07 1
vn 0 -8.46377e-06 1
vn 0 8.78961e-06 1
vn -1.20154e-07 0.707106 0.707107
vn 0 -0.707106 0.707107
vn 1.20154e-07 0.707106 -0.707107
vn 0 -0.707106 -0.707107
vn -1.45032e-07 1 -1.62921e-07
vn 0.487937 0.872879 -1.4221e-07
vn -1 0 -0
vn 2.35472e-07 1 -1.62921e-07
vn 1 0 0
vn 0.487937 -0.872879 1.4221e-07
vn -0.870316 0.492494 -8.02375e-08
vn 0 -1.45732e-07 1
vn 0 -4.71573e-07 -1
vn 0.707106 -2.52769e-07 -0.707107
vn -0.707105 -1.15203e-07 -0.707108
vn -0.707106 1.15202e-07 0.707107
vn 0 -5.36174e-07 -1
vn -0.487937 0.872879 -1.4221e-07
vn 7.3584e-08 -1 1.62921e-07
vn 0 1 -1.62921e-07
vn 1.3981e-07 -1 1.62921e-07
vn -0.487943 -0.872875 1.42209e-07
vn -0.487943 -0.872876 1.42209e-07
vn -2.35469e-07 1 -1.62921e-07
vn 0 -2.60977e-06 -1
vn 0.870316 -0.492494 8.02375e-08
vn 0.487943 -0.872875 1.42209e-07
vn 0.870313 0.4925 -8.02384e-08
vn 0.870316 0.492494 -8.02375e-08
vn -7.3584e-08 -1 1.62921e-07
vn 0.870312 -0.4925 8.02384e-08
vn -0.870313 0.4925 -8.02384e-08
vn 0 -1.67003e-06 -1
vn 0 1.34418e-06 -1
vn 0 -1.67003e-06 -1
vn 0 1.34418e-06 -1
vn 0 -2.28393e-06 1
vn -1.39812e-07 -1 1.62921e-07
vn -0.870312 -0.4925 8.02384e-08
vn -0.487943 0.872876 -1.42209e-07
vn -0.870316 -0.492494 8.02375e-08

# Mesh 'Cube.003_Cube.003' with 252 faces
g Cube.003_Cube.003
usemtl DefaultMaterial
f  1/1/1 2/2/1 3/3/1
f  3/3/1 4/4/1 1/1/1
f  5/5/2 6/6/2 7/7/2
f  7/7/2 8/8/2 5/5/2
f  9/9/3 10/10/3 11/11/3
f  11/11/3 12/12/3 9/9/3
f  13/13/4 14/14/4 15/15/4
f  15/15/4 16/16/4 13/13/4
f  17/17/5 18/18/5 19/19/5
f  19/19/5 20/20/5 17/17/5
f  21/21/6 22/22/6 23/23/6
f  24/24/7 12/25/7 15/26/7
f  25/27/8 26/28/8 27/29/8
f  11/30/9 28/31/9 16/32/9
f  29/33/10 30/34/10 31/35/10
f  32/36/11 33/37/11 8/38/11
f  34/39/12 35/40/12 36/41/12
f  37/42/13 7/43/13 38/44/13
f  26/28/14 25/27/14 21/21/14
f  21/21/14 23/23/14 26/28/14
f  14/45/15 39/46/15 24/24/15
f  24/24/15 15/26/15 14/45/15
f  15/47/16 12/48/16 11/30/16
f  11/30/16 16/32/16 15/47/16
f  40/49/17 41/50/17 27/29/17
f  27/29/17 26/28/17 40/49/17
f  42/51/18 43/52/18 25/27/18
f  25/27/18 27/29/18 42/51/18
f  44/53/19 45/54/19 37/42/19
f  37/42/19 38/44/19 44/53/19
f  46/55/20 47/56/20 36/41/20
f  36/41/20 35/40/20 46/55/20
f  30/34/21 29/33/21 34/39/21
f  34/39/21 36/41/21 30/34/21
f  7/57/22 37/58/22 32/36/22
f  32/36/22 8/38/22 7/57/22
f  48/59/23 49/60/23 31/35/23
f  31/35/23 30/34/23 48/59/23
f  50/61/24 51/62/24 29/63/24
f  29/63/24 31/64/24 50/61/24
f  52/65/25 9/66/25 12/67/25
f  12/67/25 24/68/25 52/65/25
f  51/69/26 53/70/26 34/71/26
f  34/71/26 29/72/26 51/69/26
f  39/73/1 1/1/1 4/4/1
f  4/4/1 24/15/1 39/73/1
f  41/74/27 54/75/27 55/76/27
f  55/76/27 27/77/27 41/74/27
f  56/78/27 57/79/27 58/80/27
f  58/80/27 35/81/27 56/78/27
f  59/82/27 60/83/27 61/84/27
f  61/84/27 28/85/27 59/82/27
f  62/86/28 17/17/5 20/20/5
f  20/20/5 38/87/28 62/86/28
f  49/88/29 63/89/29 64/90/29
f  64/90/29 31/91/29 49/88/29
f  65/92/30 66/93/30 67/94/30
f  67/94/30 22/95/30 65/92/30
f  68/96/1 69/97/1 70/98/1
f  70/98/1 33/99/1 68/96/1
f  24/15/1 4/4/1 3/3/1
f  3/3/1 52/100/31 24/15/1
f  52/100/31 3/3/1 69/97/1
f  69/97/1 68/96/1 52/100/31
f  31/91/29 64/90/29 71/101/1
f  71/101/1 50/102/1 31/91/29
f  50/102/1 71/101/1 66/93/30
f  66/93/30 65/92/30 50/102/1
f  38/87/28 20/20/5 19/19/5
f  19/19/5 44/103/27 38/87/28
f  44/103/27 19/19/5 60/83/27
f  60/83/27 59/82/27 44/103/27
f  27/77/27 55/76/27 72/104/27
f  72/104/27 42/105/27 27/77/27
f  42/105/27 72/104/27 57/79/27
f  57/79/27 56/78/27 42/105/27
f  21/106/26 25/107/26 43/108/26
f  43/108/26 73/109/26 21/106/26
f  73/109/26 43/108/26 53/70/26
f  53/70/26 51/69/26 73/109/26
f  33/37/32 32/36/32 74/110/32
f  74/110/32 68/111/32 33/37/32
f  68/111/32 74/110/32 9/66/25
f  9/66/25 52/65/25 68/111/32
f  22/22/33 21/21/33 73/112/33
f  73/112/33 65/113/33 22/22/33
f  65/113/33 73/112/33 51/62/24
f  51/62/24 50/61/24 65/113/33
f  28/31/34 11/30/34 10/114/34
f  10/114/34 59/115/34 28/31/34
f  59/115/34 10/114/34 45/54/19
f  45/54/19 44/53/19 59/115/34
f  35/40/35 34/39/35 53/116/35
f  53/116/35 56/117/35 35/40/35
f  56/117/35 53/116/35 43/52/18
f  43/52/18 42/51/18 56/117/35
f  75/118/27 76/119/27 61/84/27
f  61/84/27 60/83/27 75/118/27
f  60/83/27 19/19/5 77/120/27
f  32/121/36 37/122/36 45/123/36
f  45/123/36 74/124/36 32/121/36
f  74/124/36 45/123/36 10/10/3
f  10/10/3 9/9/3 74/124/36
f  78/125/1 79/126/1 70/98/1
f  70/98/1 69/97/1 78/125/1
f  69/97/1 3/3/1 80/127/1
f  81/128/37 57/129/37 82/130/37
f  82/130/37 83/131/37 81/128/37
f  84/132/38 71/133/38 85/134/38
f  85/134/38 86/135/38 84/132/38
f  71/101/1 64/90/29 63/89/29
f  63/89/29 85/136/1 71/101/1
f  87/137/39 88/138/39 54/139/39
f  54/139/39 89/140/39 87/137/39
f  90/141/40 75/142/40 60/143/40
f  60/143/40 91/144/40 90/141/40
f  92/145/41 69/146/41 80/147/41
f  80/147/41 93/148/41 92/145/41
f  72/104/27 55/76/27 54/75/27
f  54/75/27 88/149/27 72/104/27
f  94/150/42 17/151/42 95/152/42
f  95/152/42 96/153/42 94/150/42
f  33/99/1 70/98/1 79/126/1
f  79/126/1 97/154/43 33/99/1
f  97/154/43 79/126/1 63/89/29
f  63/89/29 49/88/29 97/154/43
f  35/81/27 58/80/27 98/155/44
f  98/155/44 46/156/44 35/81/27
f  46/156/44 98/155/44 17/17/5
f  17/17/5 62/86/28 46/156/44
f  28/85/27 61/84/27 76/119/27
f  76/119/27 99/157/27 28/85/27
f  99/157/27 76/119/27 54/75/27
f  54/75/27 41/74/27 99/157/27
f  22/95/30 67/94/30 100/158/1
f  100/158/1 101/159/1 22/95/30
f  101/159/1 100/158/1 1/1/1
f  1/1/1 39/73/1 101/159/1
f  8/38/23 33/37/23 97/160/23
f  97/160/23 5/161/23 8/38/23
f  5/161/23 97/160/23 49/60/23
f  49/60/23 48/59/23 5/161/23
f  38/44/45 7/43/45 6/162/45
f  6/162/45 62/163/45 38/44/45
f  62/163/45 6/162/45 47/56/20
f  47/56/20 46/55/20 62/163/45
f  16/164/46 28/165/46 99/166/46
f  99/166/46 13/167/46 16/164/46
f  13/167/46 99/166/46 41/50/17
f  41/50/17 40/49/17 13/167/46
f  23/23/47 22/22/47 101/168/47
f  101/168/47 102/169/47 23/23/47
f  102/169/47 101/168/47 39/46/15
f  39/46/15 14/45/15 102/169/47
f  58/80/27 57/79/27 103/170/48
f  103/170/48 98/155/44 58/80/27
f  83/131/49 82/130/49 72/171/49
f  72/171/49 104/172/49 83/131/49
f  26/173/38 23/174/38 102/175/38
f  102/175/38 40/176/38 26/173/38
f  40/176/38 102/175/38 14/14/4
f  14/14/4 13/13/4 40/176/38
f  30/25/40 36/177/40 47/178/40
f  47/178/40 48/179/40 30/25/40
f  48/179/40 47/178/40 6/6/2
f  6/6/2 5/5/2 48/179/40
f  67/94/30 66/93/30 105/180/1
f  105/180/1 100/158/1 67/94/30
f  106/181/50 2/182/50 1/183/50
f  1/183/50 107/184/50 106/181/50
f  108/185/38 103/186/38 57/129/38
f  57/129/38 81/128/38 108/185/38
f  109/187/51 100/188/51 105/189/51
f  105/189/51 110/190/51 109/187/51
f  17/17/5 98/155/44 95/191/27
f  111/192/52 79/193/52 78/194/52
f  78/194/52 112/195/52 111/192/52
f  91/144/53 60/143/53 77/196/53
f  77/196/53 113/197/53 91/144/53
f  54/75/27 76/119/27 114/198/27
f  93/148/54 80/147/54 3/199/54
f  3/199/54 115/200/54 93/148/54
f  104/172/40 72/171/40 88/138/40
f  88/138/40 87/137/40 104/172/40
f  86/135/55 85/134/55 63/201/55
f  63/201/55 116/202/55 86/135/55
f  57/79/27 72/104/27 82/203/56
f  117/204/57 118/205/57 100/188/57
f  100/188/57 109/187/57 117/204/57
f  113/197/58 77/196/58 19/206/58
f  19/206/58 119/207/58 113/197/58
f  120/208/59 114/209/59 76/210/59
f  76/210/59 121/211/59 120/208/59
f  107/184/60 1/183/60 118/205/60
f  118/205/60 117/204/60 107/184/60
f  66/93/30 71/101/1 122/212/1
f  123/213/61 18/214/61 17/151/61
f  17/151/61 94/150/61 123/213/61
f  115/215/40 3/216/40 2/182/40
f  2/182/40 106/181/40 115/215/40
f  1/1/1 100/158/1 118/217/1
f  124/218/37 122/219/37 71/133/37
f  71/133/37 84/132/37 124/218/37
f  125/220/51 98/221/51 103/186/51
f  103/186/51 108/185/51 125/220/51
f  89/140/62 54/139/62 114/209/62
f  114/209/62 120/208/62 89/140/62
f  112/195/38 78/194/38 69/146/38
f  69/146/38 92/145/38 112/195/38
f  126/222/63 127/223/63 79/193/63
f  79/193/63 111/192/63 126/222/63
f  63/89/29 79/126/1 127/224/1
f  110/225/1 128/226/1 124/227/1
f  110/225/1 86/228/1 112/229/1
f  112/229/1 106/230/1 110/225/1
f  111/231/1 112/229/1 126/232/1
f  87/233/56 108/234/56 83/235/56
f  108/234/56 87/233/56 90/236/27
f  90/236/27 123/237/27 108/234/56
f  121/238/64 90/236/27 120/239/64
f  123/237/27 94/240/65 96/241/65
f  106/230/1 107/242/1 117/243/1
f  125/244/66 108/234/56 96/241/65
f  108/234/56 123/237/27 96/241/65
f  87/233/56 89/245/67 120/239/64
f  90/236/27 87/233/56 120/239/64
f  123/237/27 90/236/27 113/246/27
f  119/247/27 123/237/27 113/246/27
f  90/236/27 91/248/27 113/246/27
f  104/249/27 87/233/56 83/235/56
f  108/234/56 81/250/27 83/235/56
f  84/251/1 86/228/1 124/227/1
f  86/228/1 110/225/1 124/227/1
f  109/252/1 110/225/1 117/243/1
f  110/225/1 106/230/1 117/243/1
f  106/230/1 112/229/1 93/253/68
f  115/254/1 106/230/1 93/253/68
f  112/229/1 92/255/1 93/253/68
f  86/228/1 116/256/1 126/232/1
f  112/229/1 86/228/1 126/232/1
f  121/211/69 76/210/69 75/142/69
f  75/142/69 90/141/69 121/211/69
f  110/190/40 105/189/40 66/257/40
f  66/257/40 128/258/40 110/190/40
f  116/202/70 63/201/70 127/223/70
f  127/223/70 126/222/70 116/202/70
f  119/259/38 19/260/38 18/214/38
f  18/214/38 123/213/38 119/259/38
f  128/258/71 66/257/71 122/219/71
f  122/219/71 124/218/71 128/258/71
f  96/153/72 95/152/72 98/221/72
f  98/221/72 125/220/72 96/153/72

